HIERARCHY
ROOT hip
{
	OFFSET -0.864981 4.043976 -2.745554
	CHANNELS 6 Xposition Yposition Zposition Xrotation Yrotation Zrotation
	JOINT abdomen
	{
		OFFSET 0.006265 -5.260545 1.476358
		CHANNELS 6 Xposition Yposition Zposition Xrotation Yrotation Zrotation
		JOINT chest
		{
			OFFSET 0.000000 0.408822 5.038101
			CHANNELS 3 Xrotation Yrotation Zrotation
			JOINT neck
			{
				OFFSET 0.000000 0.295671 5.933952
				CHANNELS 6 Xposition Yposition Zposition Xrotation Yrotation Zrotation
				JOINT head
				{
					OFFSET 0.000000 -0.000000 3.915264
					CHANNELS 3 Xrotation Yrotation Zrotation
					End Site
					{
						OFFSET 0.000000 0.502962 19.049229
					}
				}
			}
			JOINT rCollar
			{
				OFFSET -1.650733 0.653657 5.371155
				CHANNELS 6 Xposition Yposition Zposition Xrotation Yrotation Zrotation
				JOINT rShldr
				{
					OFFSET -7.797990 0.032507 1.258621
					CHANNELS 6 Xposition Yposition Zposition Xrotation Yrotation Zrotation
					JOINT rForeArm
					{
						OFFSET -8.142947 0.000000 0.263153
						CHANNELS 3 Xrotation Yrotation Zrotation
						JOINT rHand
						{
							OFFSET -7.471985 0.000000 -0.180000
							CHANNELS 3 Xrotation Yrotation Zrotation
							End Site
							{
								OFFSET -7.870861 -0.751105 0.069523
							}
						}
					}
				}
			}
			JOINT lCollar
			{
				OFFSET 1.564497 0.510199 5.311192
				CHANNELS 6 Xposition Yposition Zposition Xrotation Yrotation Zrotation
				JOINT lShldr
				{
					OFFSET 8.424187 0.129074 0.847660
					CHANNELS 6 Xposition Yposition Zposition Xrotation Yrotation Zrotation
					JOINT lForeArm
					{
						OFFSET 8.508548 0.000000 0.000000
						CHANNELS 3 Xrotation Yrotation Zrotation
						JOINT lHand
						{
							OFFSET 8.057705 0.271201 0.000000
							CHANNELS 3 Xrotation Yrotation Zrotation
							End Site
							{
								OFFSET 7.000000 0.000000 0.000000
							}
						}
					}
				}
			}
		}
	}
	JOINT rThigh
	{
		OFFSET -4.520273 -3.134348 -0.505213
		CHANNELS 6 Xposition Yposition Zposition Xrotation Yrotation Zrotation
		JOINT rShin
		{
			OFFSET -1.277341 -0.247694 -12.019397
			CHANNELS 3 Xrotation Yrotation Zrotation
			JOINT rFoot
			{
				OFFSET -1.072608 -1.449343 -14.881804
				CHANNELS 3 Xrotation Yrotation Zrotation
				End Site
				{
					OFFSET -0.008528 -11.284888 -1.455639
				}
			}
		}
	}
	JOINT lThigh
	{
		OFFSET 3.012242 -3.233881 -0.478729
		CHANNELS 6 Xposition Yposition Zposition Xrotation Yrotation Zrotation
		JOINT lShin
		{
			OFFSET 2.104378 -0.273124 -13.072363
			CHANNELS 3 Xrotation Yrotation Zrotation
			JOINT lFoot
			{
				OFFSET 0.557320 -0.737371 -13.658133
				CHANNELS 3 Xrotation Yrotation Zrotation
				End Site
				{
					OFFSET 0.593693 -11.863776 -1.189445
				}
			}
		}
	}
}
MOTION
Frames: 1
Frame Time: 0.016667
-0.864981 4.043976 -2.745554 -0.000001 -0.000000 0.000000 0.006265 -5.260545 1.476358 0.000000 0.000000 0.000000 0.000000 0.000000 0.000000 -0.000000 0.295671 5.933950 -0.000000 0.000000 -0.000000 -0.000000 -0.000000 -0.000000 -1.650733 0.653657 5.371156 -0.000000 0.000001 -0.000000 -7.797989 0.032507 1.258621 0.000000 -0.000001 -0.000000 -0.000000 -0.000000 -0.000000 -0.000000 0.000000 -0.000000 1.564497 0.510199 5.311191 -0.000000 -0.000001 -0.000000 8.424189 0.129074 0.847659 -0.000000 0.000000 -0.000000 -0.000000 -0.000000 0.000000 0.000000 -0.000000 0.000000 -4.520272 -3.134349 -0.505213 -0.000000 0.000000 0.000000 -0.000000 0.000001 0.000003 0.000001 0.000003 0.000001 3.012242 -3.233881 -0.478730 -0.000000 0.000000 -0.000003 -0.000000 -0.000001 -0.000003 0.000001 -0.000011 -0.000001 
